<svg xmlns="http://www.w3.org/2000/svg" width="32" height="32" viewBox="0 0 32 32">
    <g fill="none" fill-rule="evenodd">
        <path fill="#373355" d="M15.446 28.723l-2.962 1.97c-.46.305-1.08.18-1.386-.28-.032-.048-.06-.099-.084-.152l-1.427-3.259c-.161-.369-.528-.605-.931-.598l-3.557.055c-.552.009-1.007-.432-1.015-.984-.001-.058.003-.116.012-.173l.561-3.513c.064-.398-.118-.795-.46-1.007l-3.022-1.877c-.47-.291-.614-.908-.322-1.377.03-.05.065-.096.104-.139l2.371-2.652c.268-.3.33-.732.158-1.096L1.958 10.43c-.238-.499-.026-1.095.473-1.333.052-.025.107-.045.163-.06l3.428-.95c.388-.107.674-.436.725-.836L7.2 3.72c.07-.547.57-.935 1.118-.865.058.008.115.02.17.037l3.397 1.056c.385.12.804-.004 1.063-.312L15.234.912C15.59.49 16.22.434 16.643.79c.044.038.086.079.123.123l2.287 2.725c.26.308.678.431 1.063.312l3.397-1.056c.527-.164 1.088.131 1.251.659.018.055.03.112.037.17l.452 3.528c.05.4.337.73.725.837l3.428.949c.532.147.844.698.697 1.23-.015.056-.036.11-.06.163l-1.529 3.212c-.173.364-.11.796.158 1.096l2.371 2.652c.368.412.333 1.044-.079 1.412-.043.039-.09.074-.139.104l-3.022 1.877c-.342.212-.524.61-.46 1.007l.561 3.513c.087.545-.284 1.058-.83 1.145-.057.009-.115.013-.173.012l-3.557-.055c-.403-.007-.77.23-.931.598l-1.427 3.259c-.222.506-.812.736-1.318.515-.053-.024-.104-.052-.152-.084l-2.962-1.97c-.336-.222-.772-.222-1.108 0z"/>
        <path fill="#FFF" fill-rule="nonzero" d="M20.282 12l1.689 1.54-6.248 6.854c-.42.462-1.125.495-1.586.099l-.102-.1L10 15.968l1.689-1.54 3.19 3.5L20.281 12z"/>
    </g>
</svg>
