<svg xmlns="http://www.w3.org/2000/svg" xmlns:xlink="http://www.w3.org/1999/xlink" viewBox="0 0 419.74 593.79"><defs><linearGradient id="linear-gradient" x1="190.18" y1="428.3" x2="379.04" y2="634.72" gradientUnits="userSpaceOnUse"><stop offset="0" stop-color="#0071bc"/><stop offset="0.12" stop-color="#0775be" stop-opacity="0.97"/><stop offset="0.27" stop-color="#1a7fc2" stop-opacity="0.89"/><stop offset="0.43" stop-color="#3a90c9" stop-opacity="0.76"/><stop offset="0.6" stop-color="#67a8d3" stop-opacity="0.57"/><stop offset="0.79" stop-color="#a1c7e0" stop-opacity="0.33"/><stop offset="0.97" stop-color="#e7ecf0" stop-opacity="0.05"/><stop offset="1" stop-color="#f2f2f2" stop-opacity="0"/></linearGradient><linearGradient id="linear-gradient-2" x1="113.6" y1="499.41" x2="37.52" y2="578.68" xlink:href="#linear-gradient"/><linearGradient id="linear-gradient-3" x1="137.15" y1="456.74" x2="137.15" y2="646.21" xlink:href="#linear-gradient"/><linearGradient id="linear-gradient-4" x1="169.23" y1="464.1" x2="168.14" y2="465.23" xlink:href="#linear-gradient"/><linearGradient id="linear-gradient-5" x1="3865.08" y1="249.74" x2="3938.28" y2="336.14" gradientTransform="matrix(-1, 0, 0, 1, 4017.35, 0)" gradientUnits="userSpaceOnUse"><stop offset="0" stop-color="#e94a51"/><stop offset="1" stop-color="#b831a6"/></linearGradient><linearGradient id="linear-gradient-6" x1="3761.27" y1="248.62" x2="3691.91" y2="346.77" gradientTransform="matrix(-1, 0, 0, 1, 4017.35, 0)" gradientUnits="userSpaceOnUse"><stop offset="0" stop-color="#dd3073"/><stop offset="0.04" stop-color="#dd3073"/><stop offset="1" stop-color="#613dc7"/></linearGradient><linearGradient id="linear-gradient-7" x1="3746.41" y1="193.09" x2="3882.24" y2="193.09" gradientTransform="matrix(-1, 0, 0, 1, 4017.35, 0)" gradientUnits="userSpaceOnUse"><stop offset="0" stop-color="#e94a51"/><stop offset="0.48" stop-color="#fd981c"/><stop offset="1" stop-color="#f07834"/></linearGradient><linearGradient id="linear-gradient-8" x1="3766.7" y1="38.6" x2="3862.08" y2="38.6" gradientTransform="matrix(-1, 0, 0, 1, 4017.35, 0)" gradientUnits="userSpaceOnUse"><stop offset="0" stop-color="#fe9e19"/><stop offset="0.48" stop-color="#dd3073"/><stop offset="1" stop-color="#613dc7"/></linearGradient><linearGradient id="linear-gradient-9" x1="3791.89" y1="227.93" x2="3856.58" y2="277.88" gradientTransform="matrix(-1, 0, 0, 1, 4017.35, 0)" gradientUnits="userSpaceOnUse"><stop offset="0"/><stop offset="1" stop-opacity="0"/></linearGradient><linearGradient id="linear-gradient-10" x1="3763.73" y1="78.62" x2="3865.03" y2="78.62" gradientTransform="matrix(-1, 0, 0, 1, 4017.35, 0)" gradientUnits="userSpaceOnUse"><stop offset="0" stop-color="#4e7f84"/><stop offset="0.51" stop-color="#185e69"/><stop offset="1" stop-color="#183738"/></linearGradient><linearGradient id="linear-gradient-11" x1="3787.27" y1="-46.59" x2="3787.27" y2="335.26" gradientTransform="matrix(-1, 0, 0, 1, 4017.35, 0)" gradientUnits="userSpaceOnUse"><stop offset="0" stop-color="#f2f2f2"/><stop offset="0.1" stop-color="#f2f2f2" stop-opacity="0.98"/><stop offset="0.23" stop-color="#f2f2f2" stop-opacity="0.92"/><stop offset="0.37" stop-color="#f2f2f2" stop-opacity="0.81"/><stop offset="0.52" stop-color="#f2f2f2" stop-opacity="0.67"/><stop offset="0.68" stop-color="#f2f2f2" stop-opacity="0.48"/><stop offset="0.84" stop-color="#f2f2f2" stop-opacity="0.26"/><stop offset="1" stop-color="#f2f2f2" stop-opacity="0"/></linearGradient><linearGradient id="linear-gradient-12" x1="3794.22" y1="278" x2="3834.43" y2="278" gradientTransform="matrix(-1, 0, 0, 1, 4017.35, 0)" gradientUnits="userSpaceOnUse"><stop offset="0.02" stop-color="#f97c29"/><stop offset="1" stop-color="#dd3073"/></linearGradient><linearGradient id="linear-gradient-13" x1="3856.2" y1="177.08" x2="3802.2" y2="130.08" xlink:href="#linear-gradient-9"/><linearGradient id="linear-gradient-14" x1="3840.28" y1="162.87" x2="3788.19" y2="117.53" gradientTransform="matrix(-1, 0, 0, 1, 4017.35, 0)" gradientUnits="userSpaceOnUse"><stop offset="0" stop-color="#f36d36"/><stop offset="1" stop-color="#e53f5d"/></linearGradient><linearGradient id="linear-gradient-15" x1="3835.84" y1="161.78" x2="3796.02" y2="121.96" gradientTransform="matrix(-1, 0, 0, 1, 4017.35, 0)" gradientUnits="userSpaceOnUse"><stop offset="0" stop-color="#772319"/><stop offset="1" stop-color="#651c11"/></linearGradient><linearGradient id="linear-gradient-16" x1="3824.68" y1="150.62" x2="3795.55" y2="121.49" xlink:href="#linear-gradient-15"/><linearGradient id="linear-gradient-17" x1="3858.39" y1="49.58" x2="3858.39" y2="505.16" xlink:href="#linear-gradient-9"/></defs><g style="isolation:isolate"><g id="Layer_2" data-name="Layer 2"><g id="Layer_1-2" data-name="Layer 1"><path d="M419.74,462.57c-.62,1.22-1.28,2.44-1.95,3.66a241.61,241.61,0,0,1-13.21,21.49l0,0s0,0,0,.07A244.22,244.22,0,0,1,210.15,593.68c-1,0-2,.07-3,.09l-4.15,0-4.69,0c-1,0-2,0-3-.11-.62,0-1.2,0-1.84,0-1.39-.07-2.8-.13-4.19-.22-2.91-.15-5.82-.36-8.7-.64a239.85,239.85,0,0,1-24.15-3.38,243,243,0,0,1-51-15.8,245.92,245.92,0,0,1-29.77-15.46,242.89,242.89,0,0,1-22.28-15.4q-6.54-5-12.7-10.52A245.47,245.47,0,0,1,0,485.6a11.83,11.83,0,0,1,5.62,3.32c-2.84-14.31,19.49-6.29,19.49-6.29-6.83-8.57,4-21.75,4-21.75-10.88-15.44,4-20,4-20,2.85-14.31,15.44-8.6,15.44-8.6,10.29-6.86,20.58,4.58,20.58,4.58,20.59,4,4,17.73,4,17.73-18.87-5.16-16,14.84-16,14.88,3.51,24.68,25.17,30.17,46.51,23.95,27.14-7.91,47.52-29.92,58.94-55.15,10.13-22.45,14.86-47.6,16.4-72.07.21-3.27,2.91-55.83.49-55.83,15,0,30.17-.49,45.14.06-1,1.61-1,4.73-1.47,6.69-3.57,14.4-2.82,42.2-2.16,56.85,1.45,31.43,3.46,67.89,26.24,92.18,18.3,19.53,55.11,27.53,65-4.7,0,0-10.29-14.88,6.86-21.15,0,0,7.42-16,19.46-.6,0,0,17.13-1.13,10.86,13.18,0,0,13.71-4,17.71,7.44,0,0,16.59-14.89,26.9,2.86,0,0,16.57-12.59,20.57.56A32.22,32.22,0,0,1,419.74,462.57Z" style="fill:#e6e6e6"/><path d="M404.56,487.74s0,0,0,.07A244.22,244.22,0,0,1,210.15,593.68c-1,0-2,.07-3,.09l-4.15,0-4.69,0c-1,0-2,0-3-.11-.62,0-1.2,0-1.84,0-1.39-.07-2.8-.13-4.19-.22-2.91-.15-5.82-.36-8.7-.64-7.53-28.67-4.36-75,29.21-135.21C209.87,457.55,278.9,546.14,404.56,487.74Z" style="opacity:0.19;fill:url(#linear-gradient)"/><path d="M113.75,512.14c-13.69,19.27-26.35,34.35-38,46a242.89,242.89,0,0,1-22.28-15.4C86.65,532.61,112.4,513.15,113.75,512.14Z" style="opacity:0.19;fill:url(#linear-gradient-2)"/><path d="M209.87,457.55s22.58,108.19-30.24,80.75c0,0-4.48-18.92,0-28.65S195.05,468.29,198.7,464,209.87,457.55,209.87,457.55Z" style="fill:#e6e6e6"/><path d="M168.79,465.12c-3.49,84.08-8.6,114-12.28,124.26a243,243,0,0,1-51-15.8C160.51,556.56,167.89,479.42,168.79,465.12Z" style="opacity:0.19;fill:url(#linear-gradient-3)"/><path d="M168.85,463.92c0,.41,0,.79-.06,1.2C168.81,464.65,168.83,464.24,168.85,463.92Z" style="fill:url(#linear-gradient-4)"/><path d="M98,348.22s15.53-39,57.87-54.75l-.25-.7c-.24-.65-.62-1.69-1.12-3.11-.1-.34-.23-.72-.38-1.13a8.64,8.64,0,0,1-.32-.94c-5.71-21.9-11.12-42.28-15.34-61.42C136.94,227,70.88,263,98,348.22Z" style="fill:url(#linear-gradient-5)"/><path d="M168.91,302.72v11.79h18.6a142.5,142.5,0,0,1-3.14-16A107.84,107.84,0,0,0,168.91,302.72Z" style="fill:#839ba2"/><path d="M218.52,314.51h18.6V303c-5.43-3.48-10.46-5.58-15.4-3.93A153.25,153.25,0,0,1,218.52,314.51Z" style="fill:#839ba2"/><path d="M250.17,293.47c42.34,15.8,57.87,54.75,57.87,54.75,27.11-85.24-39-121.26-40.46-122.05-4.69,19.13-10.28,39.5-15.34,61.42a6.92,6.92,0,0,1-.32.94c-.13.39-.25.77-.38,1.13-.37,1-.73,2.06-1.12,3.11Z" style="fill:url(#linear-gradient-6)"/><path d="M138.46,226.16l0,0c1.32,7.68,2.78,14.89,4.27,21.54.15.62.28,1.22.43,1.84,1.24,5.47,2.52,10.54,3.74,15.14.39,1.43.77,2.82,1.16,4.17.25,1,.53,1.9.79,2.82,1.09,3.89,2.14,7.31,3.06,10.24.32,1,.6,1.86.87,2.72.17.53.35,1.05.52,1.56s.3.94.47,1.41.21.64.32.94.28.79.38,1.14c.49,1.41.88,2.45,1.12,3.1l.25.7q2.41,6.59,5.13,13.28c2.63-1.13,5.29-2.18,7.92-3.1v-.3a52.47,52.47,0,0,1,7-2.18,85.83,85.83,0,0,1,8.47-1.71c-7.76-52.16,17.94-92.9,18.62-94l0,0s26.51,41.13,18.64,94a112.89,112.89,0,0,1,23.38,7.29q2.72-6.71,5.13-13.28c.08-.23.17-.47.26-.7.38-1.05.74-2.08,1.11-3.1.13-.37.25-.75.38-1.14s.22-.62.32-.94.3-.9.47-1.39a.64.64,0,0,0,.09-.21,2.54,2.54,0,0,1,.13-.45c.79-2.44,1.75-5.43,2.78-8.9.3-1,.6-2,.92-3.1,1-3.48,2.09-7.38,3.18-11.63.2-.69.37-1.37.54-2,.77-3,1.54-6.12,2.29-9.41l.51-2.25c1.09-4.79,2.16-9.88,3.16-15.23.26-1.34.52-2.73.77-4.14.15-.88.32-1.78.47-2.68l0,0c8.53-57-.37-104.87-14-141.65-14.56-3.25-49.2-8.83-92.49-1.39-2.88.52-5.84,1.07-8.81,1.69C138.76,121.55,130,169.3,138.46,226.16Zm30.46-85.9A34.11,34.11,0,1,1,203,174.37,34.1,34.1,0,0,1,168.92,140.26Z" style="fill:url(#linear-gradient-7)"/><path d="M155.27,77.2c2.68-.54,5.31-1,7.92-1.41,39.62-6.52,71.74-2.12,87.46,1.09C230.63,27.37,203,0,203,0s-8.84,8.77-20.15,25.34a.4.4,0,0,0-.06.13A273.39,273.39,0,0,0,155.27,77.2Z" style="fill:url(#linear-gradient-8)"/><path d="M151.94,281.89c1.09,3.9-.92-2.93,0,0,.32,1,.6,1.86.87,2.72.17.53.35,1.05.52,1.56s.3.94.47,1.41.21.64.32.94.28.79.38,1.14c.49,1.41.88,2.45,1.12,3.1l.25.7q2.41,6.59,5.13,13.28c2.63-1.13,5.29-2.18,7.92-3.1v-.3a52.47,52.47,0,0,1,7-2.18,85.83,85.83,0,0,1,8.47-1.71c-7.76-52.16,17.94-92.9,18.62-94C201.91,206.28,155.86,253.2,151.94,281.89Z" style="opacity:0.37;fill:url(#linear-gradient-9)"/><path d="M152.32,84.81c3-.62,5.93-1.17,8.81-1.69,43.29-7.44,77.93-1.86,92.49,1.39q-1.47-3.92-3-7.63c-15.72-3.21-47.84-7.61-87.46-1.09-2.61.4-5.24.87-7.92,1.41C154.27,79.68,153.28,82.22,152.32,84.81Z" style="fill:url(#linear-gradient-10)"/><path d="M203,0s47.15,173.23,11.57,298.52l22.53,4.5S300,142.78,203,0Z" style="opacity:0.41000000000000003;fill:url(#linear-gradient-11)"/><path d="M184.38,299.45a127.76,127.76,0,0,0,3.14,15.05A139.42,139.42,0,0,0,203,350.56a139.72,139.72,0,0,0,15.5-36.06,133.26,133.26,0,0,0,3-14.34c0-.24.06-.47.1-.71,7.87-52.88-18.64-94-18.64-94l0,0C202.32,206.55,176.62,247.29,184.38,299.45Z" style="fill:url(#linear-gradient-12)"/><path d="M160.4,143.07a39.81,39.81,0,1,0,39.81-39.79A39.81,39.81,0,0,0,160.4,143.07Z" style="opacity:0.34;fill:url(#linear-gradient-13)"/><path d="M164.62,140.27A38.4,38.4,0,1,0,203,101.9,38.4,38.4,0,0,0,164.62,140.27Z" style="fill:url(#linear-gradient-14)"/><path d="M174.61,140.27a28.4,28.4,0,1,0,1.3-8.49A28,28,0,0,0,174.61,140.27Z" style="fill:url(#linear-gradient-15)"/><path d="M175.91,131.78c13.58,5.22,31.48,15.33,39.67,34a28.4,28.4,0,1,0-39.67-34Z" style="opacity:0.88;mix-blend-mode:overlay;fill:url(#linear-gradient-16)"/><path d="M138.46,226.16l0,0c1.32,7.68,2.78,14.89,4.27,21.54.15.62.28,1.22.43,1.84,1.24,5.47,2.52,10.54,3.74,15.14.39,1.43.77,2.82,1.16,4.17,1.39,5.07,2.71,9.45,3.85,13.06.32,1,.6,1.86.87,2.72.17.53.35,1.05.52,1.56s.3.94.47,1.41.21.64.32.94.28.79.38,1.14c.49,1.41.88,2.45,1.12,3.1l.25.7q2.41,6.59,5.13,13.28c2.63-1.13,5.29-2.18,7.92-3.1v-.3a52.47,52.47,0,0,1,7-2.18c-37.1-87.61-28.4-167.14-14.78-218,.67-2.52,1.35-5,2.06-7.33,8.7-29.92,18.54-48.35,19.63-50.32A273.39,273.39,0,0,0,155.27,77.2c-1,2.48-2,5-3,7.61C138.76,121.55,130,169.3,138.46,226.16Z" style="opacity:0.11;mix-blend-mode:multiply;fill:url(#linear-gradient-17)"/><path d="M184.38,299.45a127.76,127.76,0,0,0,3.14,15.05A139.42,139.42,0,0,0,203,350.56V205.44l0,0C202.32,206.55,176.62,247.29,184.38,299.45Z" style="fill:#c84849;opacity:0.28;mix-blend-mode:multiply"/></g></g></g></svg>